<svg xmlns="http://www.w3.org/2000/svg" width="1024" height="1024" viewBox="0 0 1024 1024">
  <defs>
    <linearGradient id="tileBlue" x1="0" y1="0" x2="1" y2="1">
      <stop offset="0%" stop-color="#56d7ff"/>
      <stop offset="100%" stop-color="#3f85ff"/>
    </linearGradient>
    <linearGradient id="botGreen" x1="0" y1="0" x2="1" y2="1">
      <stop offset="0%" stop-color="#52ff88"/>
      <stop offset="100%" stop-color="#25c85b"/>
    </linearGradient>
    <linearGradient id="botOrange" x1="0" y1="0" x2="1" y2="1">
      <stop offset="0%" stop-color="#ffa65b"/>
      <stop offset="100%" stop-color="#ef6c33"/>
    </linearGradient>
    <linearGradient id="botPurple" x1="0" y1="0" x2="1" y2="1">
      <stop offset="0%" stop-color="#8b9aff"/>
      <stop offset="100%" stop-color="#7459ff"/>
    </linearGradient>
    <linearGradient id="botCyan" x1="0" y1="0" x2="1" y2="1">
      <stop offset="0%" stop-color="#33e2ff"/>
      <stop offset="100%" stop-color="#1786ff"/>
    </linearGradient>
    <filter id="glow" x="-50%" y="-50%" width="200%" height="200%">
      <feGaussianBlur stdDeviation="6" result="blur"/>
      <feColorMatrix in="blur" type="matrix"
        values="1 0 0 0 0
                0 1 0 0 0
                0 0 1 0 0
                0 0 0 0.5 0" result="glow"/>
      <feMerge>
        <feMergeNode in="glow"/>
        <feMergeNode in="SourceGraphic"/>
      </feMerge>
    </filter>
  </defs>
  <g transform="translate(222,222)" filter="url(#glow)">
    <rect x="0" y="0" width="260" height="260" rx="28" fill="#091628" fill-opacity="0.82" stroke="url(#tileBlue)" stroke-width="12"/>
    <rect x="320" y="0" width="260" height="260" rx="28" fill="#091628" fill-opacity="0.82" stroke="url(#tileBlue)" stroke-width="12"/>
    <rect x="0" y="320" width="260" height="260" rx="28" fill="#091628" fill-opacity="0.82" stroke="#ffd2a8" stroke-width="12"/>
    <rect x="320" y="320" width="260" height="260" rx="28" fill="#091628" fill-opacity="0.82" stroke="url(#tileBlue)" stroke-width="12"/>
    
    <g transform="translate(48,46) scale(1.62)">
      <rect x="18" y="14" width="64" height="56" rx="7" fill="#08152b"/>
      <rect x="24" y="20" width="52" height="44" rx="4" fill="url(#botGreen)"/>
      <rect x="12" y="26" width="10" height="18" rx="2" fill="#08152b"/>
      <rect x="78" y="26" width="10" height="18" rx="2" fill="#08152b"/>
      <rect x="14" y="28" width="6" height="14" rx="1" fill="url(#botGreen)"/>
      <rect x="80" y="28" width="6" height="14" rx="1" fill="url(#botGreen)"/>
      <rect x="37" y="36" width="10" height="12" rx="1" fill="#08152b"/>
      <rect x="53" y="36" width="10" height="12" rx="1" fill="#08152b"/>
      <rect x="10" y="58" width="14" height="18" rx="2" fill="#08152b"/>
      <rect x="76" y="58" width="14" height="18" rx="2" fill="#08152b"/>
      <rect x="13" y="61" width="8" height="12" rx="1" fill="url(#botGreen)"/>
      <rect x="79" y="61" width="8" height="12" rx="1" fill="url(#botGreen)"/>
      <rect x="28" y="68" width="16" height="24" rx="2" fill="#08152b"/>
      <rect x="56" y="68" width="16" height="24" rx="2" fill="#08152b"/>
      <rect x="31" y="71" width="10" height="18" rx="1" fill="url(#botGreen)"/>
      <rect x="59" y="71" width="10" height="18" rx="1" fill="url(#botGreen)"/>
      <rect x="28" y="22" width="24" height="10" rx="3" fill="#ffffff" opacity="0.18"/>
      
    </g>
    
    
    <g transform="translate(368,46) scale(1.62)">
      <rect x="18" y="14" width="64" height="56" rx="7" fill="#08152b"/>
      <rect x="24" y="20" width="52" height="44" rx="4" fill="url(#botOrange)"/>
      <rect x="12" y="26" width="10" height="18" rx="2" fill="#08152b"/>
      <rect x="78" y="26" width="10" height="18" rx="2" fill="#08152b"/>
      <rect x="14" y="28" width="6" height="14" rx="1" fill="url(#botOrange)"/>
      <rect x="80" y="28" width="6" height="14" rx="1" fill="url(#botOrange)"/>
      <rect x="37" y="36" width="10" height="12" rx="1" fill="#08152b"/>
      <rect x="53" y="36" width="10" height="12" rx="1" fill="#08152b"/>
      <rect x="10" y="58" width="14" height="18" rx="2" fill="#08152b"/>
      <rect x="76" y="58" width="14" height="18" rx="2" fill="#08152b"/>
      <rect x="13" y="61" width="8" height="12" rx="1" fill="url(#botOrange)"/>
      <rect x="79" y="61" width="8" height="12" rx="1" fill="url(#botOrange)"/>
      <rect x="28" y="68" width="16" height="24" rx="2" fill="#08152b"/>
      <rect x="56" y="68" width="16" height="24" rx="2" fill="#08152b"/>
      <rect x="31" y="71" width="10" height="18" rx="1" fill="url(#botOrange)"/>
      <rect x="59" y="71" width="10" height="18" rx="1" fill="url(#botOrange)"/>
      <rect x="28" y="22" width="24" height="10" rx="3" fill="#ffffff" opacity="0.18"/>
      <rect x="86" y="20" width="12" height="12" rx="1" fill="#ffe3b5" opacity="0.95"/>
    </g>
    
    
    <g transform="translate(48,366) scale(1.62)">
      <rect x="18" y="14" width="64" height="56" rx="7" fill="#08152b"/>
      <rect x="24" y="20" width="52" height="44" rx="4" fill="url(#botPurple)"/>
      <rect x="12" y="26" width="10" height="18" rx="2" fill="#08152b"/>
      <rect x="78" y="26" width="10" height="18" rx="2" fill="#08152b"/>
      <rect x="14" y="28" width="6" height="14" rx="1" fill="url(#botPurple)"/>
      <rect x="80" y="28" width="6" height="14" rx="1" fill="url(#botPurple)"/>
      <rect x="37" y="36" width="10" height="12" rx="1" fill="#08152b"/>
      <rect x="53" y="36" width="10" height="12" rx="1" fill="#08152b"/>
      <rect x="10" y="58" width="14" height="18" rx="2" fill="#08152b"/>
      <rect x="76" y="58" width="14" height="18" rx="2" fill="#08152b"/>
      <rect x="13" y="61" width="8" height="12" rx="1" fill="url(#botPurple)"/>
      <rect x="79" y="61" width="8" height="12" rx="1" fill="url(#botPurple)"/>
      <rect x="28" y="68" width="16" height="24" rx="2" fill="#08152b"/>
      <rect x="56" y="68" width="16" height="24" rx="2" fill="#08152b"/>
      <rect x="31" y="71" width="10" height="18" rx="1" fill="url(#botPurple)"/>
      <rect x="59" y="71" width="10" height="18" rx="1" fill="url(#botPurple)"/>
      <rect x="28" y="22" width="24" height="10" rx="3" fill="#ffffff" opacity="0.18"/>
      <rect x="28" y="20" width="24" height="10" rx="3" fill="#ffffff" opacity="0.28"/><rect x="58" y="34" width="10" height="12" rx="1" fill="#ffffff" opacity="0.9"/><rect x="74" y="34" width="10" height="12" rx="1" fill="#ffffff" opacity="0.9"/>
    </g>
    
    
    <g transform="translate(368,366) scale(1.62)">
      <rect x="18" y="14" width="64" height="56" rx="7" fill="#08152b"/>
      <rect x="24" y="20" width="52" height="44" rx="4" fill="url(#botCyan)"/>
      <rect x="12" y="26" width="10" height="18" rx="2" fill="#08152b"/>
      <rect x="78" y="26" width="10" height="18" rx="2" fill="#08152b"/>
      <rect x="14" y="28" width="6" height="14" rx="1" fill="url(#botCyan)"/>
      <rect x="80" y="28" width="6" height="14" rx="1" fill="url(#botCyan)"/>
      <rect x="37" y="36" width="10" height="12" rx="1" fill="#08152b"/>
      <rect x="53" y="36" width="10" height="12" rx="1" fill="#08152b"/>
      <rect x="10" y="58" width="14" height="18" rx="2" fill="#08152b"/>
      <rect x="76" y="58" width="14" height="18" rx="2" fill="#08152b"/>
      <rect x="13" y="61" width="8" height="12" rx="1" fill="url(#botCyan)"/>
      <rect x="79" y="61" width="8" height="12" rx="1" fill="url(#botCyan)"/>
      <rect x="28" y="68" width="16" height="24" rx="2" fill="#08152b"/>
      <rect x="56" y="68" width="16" height="24" rx="2" fill="#08152b"/>
      <rect x="31" y="71" width="10" height="18" rx="1" fill="url(#botCyan)"/>
      <rect x="59" y="71" width="10" height="18" rx="1" fill="url(#botCyan)"/>
      <rect x="28" y="22" width="24" height="10" rx="3" fill="#ffffff" opacity="0.18"/>
      <rect x="28" y="20" width="24" height="10" rx="3" fill="#ffffff" opacity="0.20"/>
    </g>
    
  </g>
</svg>